<svg width="500" height="500" viewBox="0 0 500 500" fill="none" xmlns="http://www.w3.org/2000/svg">
<mask id="path-1-inside-1_2001_17" fill="white">
<path d="M181.1 9.61523C179.733 14.1708 179 18.9997 179 24C179 45.2897 192.306 63.4709 211.056 70.6826C211.02 71.784 211 72.8899 211 74C211 129.228 255.772 174 311 174C348.571 174 381.301 153.28 398.391 122.644C402.116 123.529 406.003 124 410 124C427.262 124 442.48 115.252 451.465 101.947C481.973 143.392 500 194.59 500 250C500 388.071 388.071 500 250 500C111.929 500 0 388.071 0 250C0 135.827 76.5354 39.5303 181.1 9.61523Z"/>
</mask>
<path d="M181.1 9.61523C179.733 14.1708 179 18.9997 179 24C179 45.2897 192.306 63.4709 211.056 70.6826C211.02 71.784 211 72.8899 211 74C211 129.228 255.772 174 311 174C348.571 174 381.301 153.28 398.391 122.644C402.116 123.529 406.003 124 410 124C427.262 124 442.48 115.252 451.465 101.947C481.973 143.392 500 194.59 500 250C500 388.071 388.071 500 250 500C111.929 500 0 388.071 0 250C0 135.827 76.5354 39.5303 181.1 9.61523Z" fill="#EB9B55"/>
<path d="M181.1 9.61523L184.931 10.7642L187.032 3.75748L179.999 5.76952L181.1 9.61523ZM211.056 70.6826L215.054 70.8129L215.146 67.9703L212.492 66.9493L211.056 70.6826ZM398.391 122.644L399.316 118.752L396.372 118.052L394.897 120.695L398.391 122.644ZM451.465 101.947L454.686 99.576L451.324 95.0086L448.15 99.7086L451.465 101.947ZM181.1 9.61523L177.268 8.46626C175.791 13.3908 175 18.6067 175 24H179H183C183 19.3928 183.676 14.9507 184.931 10.7642L181.1 9.61523ZM179 24H175C175 46.9993 189.377 66.6299 209.62 74.416L211.056 70.6826L212.492 66.9493C195.235 60.3119 183 43.5801 183 24H179ZM211.056 70.6826L207.058 70.5523C207.021 71.693 207 72.8425 207 74H211H215C215 72.9373 215.019 71.875 215.054 70.8129L211.056 70.6826ZM211 74H207C207 131.438 253.562 178 311 178V174V170C257.981 170 215 127.019 215 74H211ZM311 174V178C350.079 178 384.117 156.443 401.884 124.592L398.391 122.644L394.897 120.695C378.486 150.116 347.063 170 311 170V174ZM398.391 122.644L397.465 126.535C401.491 127.492 405.688 128 410 128V124V120C406.318 120 402.742 119.567 399.316 118.752L398.391 122.644ZM410 124V128C428.647 128 445.083 118.544 454.78 104.186L451.465 101.947L448.15 99.7086C439.877 111.959 425.877 120 410 120V124ZM451.465 101.947L448.244 104.319C478.263 145.099 496 195.472 496 250H500H504C504 193.709 485.683 141.684 454.686 99.576L451.465 101.947ZM500 250H496C496 385.862 385.862 496 250 496V500V504C390.28 504 504 390.28 504 250H500ZM250 500V496C114.138 496 4 385.862 4 250H0H-4C-4 390.28 109.72 504 250 504V500ZM0 250H4C4 137.66 79.3063 42.898 182.2 13.4609L181.1 9.61523L179.999 5.76952C73.7644 36.1625 -4 133.995 -4 250H0Z" fill="#BB7C43" mask="url(#path-1-inside-1_2001_17)"/>
<circle cx="356.04" cy="276.305" r="45" fill="#6A2E0F"/>
<rect x="270" y="276.035" width="150" height="30" transform="rotate(-35 270 276.035)" fill="#6A2E0F"/>
<circle cx="45" cy="45" r="45" transform="matrix(-1 0 0 1 190.04 231.301)" fill="#6A2E0F"/>
<rect width="150" height="30" transform="matrix(-0.819152 -0.573576 -0.573576 0.819152 231.08 276.031)" fill="#6A2E0F"/>
<path d="M293.18 374C287.602 392.514 270.422 406 250.09 406C229.757 406 212.578 392.514 207 374H223.045C227.889 384.058 238.179 391 250.09 391C262.001 391 272.291 384.058 277.135 374H293.18Z" fill="#6A2E0F"/>
<path d="M143 97.5C146.806 97.5 149.115 98.3475 150.508 100.101C151.927 101.887 152.5 104.733 152.5 109C152.5 113.123 150.884 115.706 148.383 117.287C145.842 118.893 142.33 119.5 138.5 119.5C136.531 119.5 135.017 119.566 133.768 119.532C132.523 119.498 131.687 119.362 131.099 119.026C130.547 118.711 130.145 118.177 129.881 117.158C129.611 116.12 129.5 114.635 129.5 112.5C129.5 104.167 135.591 97.5 143 97.5Z" fill="#A24A1C" stroke="#98461B"/>
<path d="M215.582 167.583C216.894 169.577 217.316 170.966 217.11 172.073C216.906 173.171 216.055 174.156 214.377 175.261C213.599 175.773 212.852 175.979 212.132 175.963C211.408 175.947 210.676 175.705 209.94 175.265C208.454 174.376 207.014 172.72 205.699 170.722C205.02 169.691 204.477 168.923 204.061 168.262C203.646 167.601 203.424 167.144 203.361 166.777C203.306 166.457 203.366 166.18 203.631 165.839C203.919 165.469 204.435 165.044 205.282 164.487C208.402 162.433 213.031 163.709 215.582 167.583Z" fill="#A24A1C" stroke="#98461B"/>
<path d="M447.082 170.319C449.417 170.372 450.769 170.991 451.568 172.191C452.401 173.445 452.716 175.444 452.647 178.478C452.58 181.389 451.537 183.155 450.005 184.204C448.442 185.274 446.29 185.653 443.92 185.599C442.671 185.571 441.747 185.596 440.969 185.554C440.198 185.513 439.731 185.406 439.419 185.193C439.133 184.997 438.901 184.657 438.754 183.938C438.605 183.208 438.559 182.161 438.594 180.645C438.729 174.725 442.628 170.217 447.082 170.319Z" fill="#A24A1C" stroke="#98461B"/>
<path d="M316.167 338.7C317.327 338.726 318.238 338.92 318.955 339.274C319.663 339.625 320.208 340.146 320.622 340.875C321.469 342.369 321.774 344.742 321.693 348.292C321.614 351.743 320.544 353.842 318.999 355.081C317.437 356.334 315.299 356.781 312.943 356.727C311.689 356.699 310.775 356.733 309.997 356.686C309.235 356.641 308.782 356.521 308.478 356.279C308.185 356.046 307.942 355.626 307.793 354.758C307.643 353.888 307.602 352.65 307.643 350.877C307.722 347.411 308.749 344.318 310.318 342.118C311.89 339.915 313.968 338.649 316.167 338.7Z" fill="#A24A1C" stroke="#98461B"/>
<path d="M448.573 323.749C450.097 325.099 450.638 326.255 450.503 327.471C450.361 328.75 449.467 330.237 447.725 332.206C446.064 334.082 444.399 334.65 442.812 334.481C441.187 334.309 439.549 333.353 437.998 331.981C437.177 331.253 436.549 330.753 436.052 330.285C435.562 329.823 435.321 329.498 435.236 329.198C435.16 328.929 435.188 328.59 435.487 328.04C435.792 327.48 436.343 326.766 437.214 325.782C440.599 321.958 445.686 321.194 448.573 323.749Z" fill="#A24A1C" stroke="#98461B"/>
<path d="M77.2289 305.564C78.8704 305.158 79.8652 305.266 80.5435 305.738C81.2414 306.224 81.747 307.187 82.1605 308.859C82.5351 310.374 82.1199 311.459 81.2529 312.287C80.3508 313.148 78.9294 313.754 77.2726 314.164C76.3977 314.38 75.7639 314.564 75.2166 314.685C74.672 314.806 74.3445 314.829 74.1181 314.775C73.9367 314.731 73.7707 314.626 73.5885 314.309C73.3928 313.969 73.2074 313.431 72.9997 312.592C72.2295 309.478 74.1241 306.332 77.2289 305.564Z" fill="#A24A1C" stroke="#98461B"/>
<path d="M44.0909 205.275C47.3176 205.581 49.2483 206.121 50.3355 206.934C50.8627 207.328 51.1922 207.786 51.3783 208.331C51.5678 208.886 51.6184 209.558 51.5402 210.383C51.4096 211.762 50.2118 212.662 47.9663 213.124C45.754 213.579 42.7599 213.545 39.5408 213.241C37.9078 213.086 36.6234 212.991 35.5788 212.878C34.5325 212.765 33.8047 212.64 33.2978 212.447C32.8159 212.263 32.58 212.036 32.4491 211.724C32.3019 211.373 32.2566 210.845 32.337 209.996C32.4754 208.534 33.7239 207.202 35.8812 206.295C38.0168 205.397 40.9244 204.976 44.0909 205.275Z" fill="#A24A1C" stroke="#98461B"/>
<path d="M131.232 395.784C131.655 395.469 132.019 395.299 132.344 395.236C132.66 395.174 132.968 395.209 133.3 395.351C134 395.651 134.796 396.428 135.834 397.824C136.814 399.143 137.009 400.195 136.823 401.033C136.633 401.889 136.02 402.64 135.145 403.29C134.645 403.663 134.339 403.924 134.035 404.133C133.745 404.333 133.597 404.376 133.497 404.373C133.409 404.371 133.248 404.328 132.949 404.053C132.649 403.777 132.273 403.327 131.755 402.631C130.766 401.301 130.242 399.85 130.172 398.595C130.101 397.336 130.486 396.339 131.232 395.784Z" fill="#A24A1C" stroke="#98461B"/>
<path d="M194.641 315.177C195.065 314.862 195.429 314.692 195.753 314.628C196.069 314.567 196.378 314.602 196.709 314.744C197.41 315.044 198.205 315.821 199.243 317.216C200.224 318.535 200.419 319.587 200.232 320.425C200.042 321.281 199.429 322.032 198.555 322.683C198.054 323.055 197.749 323.317 197.445 323.525C197.154 323.725 197.006 323.768 196.907 323.766C196.819 323.764 196.658 323.721 196.358 323.445C196.059 323.17 195.682 322.72 195.165 322.024C194.176 320.694 193.651 319.243 193.581 317.988C193.511 316.729 193.896 315.731 194.641 315.177Z" fill="#A24A1C" stroke="#98461B"/>
<path d="M220.531 471.307C223.041 469.44 224.925 468.843 226.595 469.216C228.291 469.596 229.929 471.009 231.854 473.598C233.685 476.059 233.789 478.374 232.866 480.534C231.925 482.739 229.893 484.822 227.37 486.699C226.069 487.667 225.104 488.447 224.265 489.039C223.428 489.629 222.825 489.949 222.302 490.03C221.825 490.104 221.352 489.988 220.742 489.517C220.111 489.031 219.376 488.197 218.412 486.9C214.699 481.907 215.661 474.928 220.531 471.307Z" fill="#A24A1C" stroke="#98461B"/>
<path d="M308.871 457.67C312.378 457.82 314.524 458.233 315.771 458.938C316.378 459.281 316.756 459.686 316.984 460.155C317.215 460.632 317.311 461.218 317.279 461.954C317.254 462.551 316.951 463.051 316.337 463.482C315.709 463.924 314.78 464.272 313.59 464.523C311.214 465.025 307.965 465.112 304.467 464.962C302.699 464.886 301.3 464.851 300.165 464.79C299.028 464.728 298.221 464.643 297.647 464.484C297.085 464.328 296.814 464.12 296.661 463.857C296.492 463.567 296.41 463.117 296.443 462.353C296.496 461.097 297.71 459.843 300.022 458.922C302.286 458.019 305.416 457.522 308.871 457.67Z" fill="#A24A1C" stroke="#98461B"/>
<path d="M374.559 407.579C375.088 407.392 375.525 407.377 375.916 407.5C376.312 407.624 376.719 407.909 377.148 408.423C378.022 409.47 378.886 411.339 379.9 414.211C380.897 417.036 380.981 418.946 380.59 420.219C380.209 421.458 379.355 422.167 378.259 422.554C377.946 422.664 377.666 422.777 377.425 422.871C377.179 422.967 376.981 423.041 376.805 423.092C376.462 423.191 376.3 423.17 376.157 423.084C375.97 422.97 375.719 422.686 375.375 421.991C375.038 421.311 374.647 420.316 374.141 418.883C373.144 416.061 372.735 413.358 372.861 411.278C372.924 410.237 373.12 409.378 373.423 408.743C373.725 408.111 374.114 407.736 374.559 407.579Z" fill="#A24A1C" stroke="#98461B"/>
</svg>
